<?xml version="1.0" encoding="UTF-8"?>
<svg width="19px" height="17px" viewBox="0 0 19 17" version="1.1" xmlns="http://www.w3.org/2000/svg" xmlns:xlink="http://www.w3.org/1999/xlink">
    <!-- Generator: Sketch 40.3 (33839) - http://www.bohemiancoding.com/sketch -->
    <title>Heart fill</title>
    <desc>Created with Sketch.</desc>
    <defs></defs>
    <g id="Page-1" stroke="none" stroke-width="1" fill="none" fill-rule="evenodd">
        <g id="WTM-home-Copy" transform="translate(-1009.000000, -6004.000000)" fill="#EA3962">
            <g id="Group-23" transform="translate(0.000000, 5600.000000)">
                <g id="Group-27" transform="translate(0.000000, 382.000000)">
                    <g id="Group-41" transform="translate(930.000000, 15.000000)">
                        <path d="M79,12.4599702 C79,13.7729612 79.4608851,15.0166606 80.2855873,15.996892 L80.3263116,16.0419716 L87.0756911,23.0035286 C87.5790575,23.5227191 88.4051897,23.5304666 88.9133896,23.0153314 C89.0805484,22.8458913 89.0805484,22.8458913 89.7491838,22.1681311 C90.5849781,21.3209309 90.5849781,21.3209309 91.5879312,20.3042906 C92.4825597,19.3974533 92.4825597,19.3974533 93.2585524,18.6108707 C93.5111227,18.3548536 93.8545878,18.0058666 94.2663668,17.5869656 C94.2683486,17.5849495 94.2683486,17.5849495 94.2703304,17.5829334 C94.5910735,17.2566408 94.9344513,16.9070706 95.2776606,16.5575046 C95.4721259,16.3594234 95.4721259,16.3594234 95.6093703,16.2195952 C95.7123008,16.1147164 95.7123008,16.1147164 95.7351956,16.0913835 L95.7722378,16.0511563 C96.6254782,15.0634399 97.104087,13.7978795 97.104087,12.4599702 C97.104087,9.44710802 94.6899248,7 91.7060186,7 C89.9664368,7 88.3647117,7.83894514 87.3547394,9.22819394 L88.7493476,9.22819394 C87.7393753,7.83894514 86.1376503,7 84.3980684,7 C81.4141623,7 79,9.44710802 79,12.4599702 L79,12.4599702 Z" id="Heart-fill"></path>
                    </g>
                </g>
            </g>
        </g>
    </g>
</svg>